<mxfile host="app.diagrams.net" agent="Mozilla/5.0 (Macintosh; Intel Mac OS X 10_15_7) AppleWebKit/537.36 (KHTML, like Gecko) Chrome/139.0.0.0 Safari/537.36" version="28.2.0">
  <diagram name="Page-1" id="nn5bsdUvdrJ92f1RJ0ul">
    <mxGraphModel dx="977" dy="1051" grid="1" gridSize="10" guides="1" tooltips="1" connect="1" arrows="1" fold="1" page="1" pageScale="1" pageWidth="850" pageHeight="1100" math="0" shadow="0">
      <root>
        <mxCell id="0" />
        <mxCell id="1" parent="0" />
        <mxCell id="QU90ktA4fOMw6LSux8Zc-3" style="edgeStyle=orthogonalEdgeStyle;rounded=0;orthogonalLoop=1;jettySize=auto;html=1;entryX=0.5;entryY=0;entryDx=0;entryDy=0;" edge="1" parent="1" source="QU90ktA4fOMw6LSux8Zc-1" target="QU90ktA4fOMw6LSux8Zc-2">
          <mxGeometry relative="1" as="geometry" />
        </mxCell>
        <mxCell id="QU90ktA4fOMw6LSux8Zc-1" value="Start" style="strokeWidth=2;html=1;shape=mxgraph.flowchart.start_1;whiteSpace=wrap;" vertex="1" parent="1">
          <mxGeometry x="375" y="40" width="115" height="70" as="geometry" />
        </mxCell>
        <mxCell id="QU90ktA4fOMw6LSux8Zc-2" value="Housekeeping Module:&lt;div&gt;Input hours&lt;/div&gt;&lt;div&gt;If hours &amp;gt; 0, Input materials&lt;/div&gt;" style="rounded=1;whiteSpace=wrap;html=1;absoluteArcSize=1;arcSize=14;strokeWidth=2;" vertex="1" parent="1">
          <mxGeometry x="374" y="160" width="117" height="120" as="geometry" />
        </mxCell>
        <mxCell id="QU90ktA4fOMw6LSux8Zc-7" style="edgeStyle=orthogonalEdgeStyle;rounded=0;orthogonalLoop=1;jettySize=auto;html=1;" edge="1" parent="1" source="QU90ktA4fOMw6LSux8Zc-4" target="QU90ktA4fOMw6LSux8Zc-6">
          <mxGeometry relative="1" as="geometry">
            <Array as="points">
              <mxPoint x="590" y="415" />
              <mxPoint x="590" y="1050" />
            </Array>
          </mxGeometry>
        </mxCell>
        <mxCell id="QU90ktA4fOMw6LSux8Zc-8" value="yes" style="edgeLabel;html=1;align=center;verticalAlign=middle;resizable=0;points=[];" vertex="1" connectable="0" parent="QU90ktA4fOMw6LSux8Zc-7">
          <mxGeometry x="-0.804" relative="1" as="geometry">
            <mxPoint x="-29" y="-10" as="offset" />
          </mxGeometry>
        </mxCell>
        <mxCell id="QU90ktA4fOMw6LSux8Zc-4" value="Hours = 0" style="strokeWidth=2;html=1;shape=mxgraph.flowchart.decision;whiteSpace=wrap;" vertex="1" parent="1">
          <mxGeometry x="367.5" y="350" width="130" height="130" as="geometry" />
        </mxCell>
        <mxCell id="QU90ktA4fOMw6LSux8Zc-5" value="End" style="strokeWidth=2;html=1;shape=mxgraph.flowchart.terminator;whiteSpace=wrap;" vertex="1" parent="1">
          <mxGeometry x="382.5" y="1150" width="100" height="60" as="geometry" />
        </mxCell>
        <mxCell id="QU90ktA4fOMw6LSux8Zc-6" value="EOJ Module&lt;div&gt;Display &quot;Thank you for your business&quot;&lt;/div&gt;" style="rounded=1;whiteSpace=wrap;html=1;absoluteArcSize=1;arcSize=14;strokeWidth=2;" vertex="1" parent="1">
          <mxGeometry x="382.5" y="1000" width="100" height="100" as="geometry" />
        </mxCell>
        <mxCell id="QU90ktA4fOMw6LSux8Zc-9" value="Housekeeping module:&lt;div&gt;Input labor hours&lt;/div&gt;&lt;div&gt;display hours&lt;/div&gt;&lt;div&gt;input materials&lt;/div&gt;&lt;div&gt;display &quot;enter wholesale cost of materials&lt;/div&gt;" style="rounded=1;whiteSpace=wrap;html=1;absoluteArcSize=1;arcSize=14;strokeWidth=2;" vertex="1" parent="1">
          <mxGeometry x="332.5" y="530" width="200" height="120" as="geometry" />
        </mxCell>
        <mxCell id="QU90ktA4fOMw6LSux8Zc-10" style="edgeStyle=orthogonalEdgeStyle;rounded=0;orthogonalLoop=1;jettySize=auto;html=1;entryX=0.5;entryY=0;entryDx=0;entryDy=0;entryPerimeter=0;" edge="1" parent="1" source="QU90ktA4fOMw6LSux8Zc-2" target="QU90ktA4fOMw6LSux8Zc-4">
          <mxGeometry relative="1" as="geometry" />
        </mxCell>
        <mxCell id="QU90ktA4fOMw6LSux8Zc-11" style="edgeStyle=orthogonalEdgeStyle;rounded=0;orthogonalLoop=1;jettySize=auto;html=1;entryX=0.5;entryY=1;entryDx=0;entryDy=0;entryPerimeter=0;" edge="1" parent="1" source="QU90ktA4fOMw6LSux8Zc-9" target="QU90ktA4fOMw6LSux8Zc-4">
          <mxGeometry relative="1" as="geometry" />
        </mxCell>
        <mxCell id="QU90ktA4fOMw6LSux8Zc-12" value="Detailed Loop Module:&lt;div&gt;Laborcost = hours * 30&lt;/div&gt;&lt;div&gt;materialscost = materials * 120%&lt;/div&gt;&lt;div&gt;jobcost = laborcost + materialscost&lt;/div&gt;&lt;div&gt;Diplay Jobcost&lt;/div&gt;" style="rounded=1;whiteSpace=wrap;html=1;absoluteArcSize=1;arcSize=14;strokeWidth=2;" vertex="1" parent="1">
          <mxGeometry x="310" y="720" width="230" height="190" as="geometry" />
        </mxCell>
        <mxCell id="QU90ktA4fOMw6LSux8Zc-13" style="edgeStyle=orthogonalEdgeStyle;rounded=0;orthogonalLoop=1;jettySize=auto;html=1;" edge="1" parent="1" source="QU90ktA4fOMw6LSux8Zc-4">
          <mxGeometry relative="1" as="geometry">
            <mxPoint x="307" y="800" as="targetPoint" />
            <Array as="points">
              <mxPoint x="230" y="415" />
              <mxPoint x="230" y="800" />
              <mxPoint x="307" y="800" />
            </Array>
          </mxGeometry>
        </mxCell>
        <mxCell id="QU90ktA4fOMw6LSux8Zc-14" value="no" style="text;html=1;align=center;verticalAlign=middle;resizable=0;points=[];autosize=1;strokeColor=none;fillColor=none;" vertex="1" parent="1">
          <mxGeometry x="280" y="390" width="40" height="30" as="geometry" />
        </mxCell>
        <mxCell id="QU90ktA4fOMw6LSux8Zc-15" style="edgeStyle=orthogonalEdgeStyle;rounded=0;orthogonalLoop=1;jettySize=auto;html=1;entryX=0.463;entryY=1;entryDx=0;entryDy=0;entryPerimeter=0;" edge="1" parent="1" source="QU90ktA4fOMw6LSux8Zc-12" target="QU90ktA4fOMw6LSux8Zc-9">
          <mxGeometry relative="1" as="geometry" />
        </mxCell>
        <mxCell id="QU90ktA4fOMw6LSux8Zc-16" style="edgeStyle=orthogonalEdgeStyle;rounded=0;orthogonalLoop=1;jettySize=auto;html=1;entryX=0.5;entryY=0;entryDx=0;entryDy=0;entryPerimeter=0;" edge="1" parent="1" source="QU90ktA4fOMw6LSux8Zc-6" target="QU90ktA4fOMw6LSux8Zc-5">
          <mxGeometry relative="1" as="geometry" />
        </mxCell>
      </root>
    </mxGraphModel>
  </diagram>
</mxfile>
